<mxfile host="app.diagrams.net" modified="2023-08-16T08:02:54.660Z" agent="Mozilla/5.0 (Windows NT 10.0; Win64; x64) AppleWebKit/537.36 (KHTML, like Gecko) Chrome/115.0.0.0 Safari/537.36 Edg/115.0.1901.203" etag="BJRPLNA13i5YCD1GUZV4" version="21.6.8" type="google" pages="3">
  <diagram name="Page-1" id="-xg_1-C9XNM-NYuDJJGU">
    <mxGraphModel grid="1" page="1" gridSize="10" guides="1" tooltips="1" connect="1" arrows="1" fold="1" pageScale="1" pageWidth="827" pageHeight="1169" math="0" shadow="0">
      <root>
        <mxCell id="0" />
        <mxCell id="1" parent="0" />
        <mxCell id="LdABEuLXezl1GXQZqgnf-1" value="" style="ellipse;html=1;shape=startState;fillColor=#000000;strokeColor=#ff0000;" vertex="1" parent="1">
          <mxGeometry x="390" y="60" width="30" height="30" as="geometry" />
        </mxCell>
        <mxCell id="LdABEuLXezl1GXQZqgnf-2" value="" style="edgeStyle=orthogonalEdgeStyle;html=1;verticalAlign=bottom;endArrow=open;endSize=8;strokeColor=#ff0000;rounded=0;entryX=0.5;entryY=0;entryDx=0;entryDy=0;" edge="1" parent="1" source="LdABEuLXezl1GXQZqgnf-1" target="LdABEuLXezl1GXQZqgnf-7">
          <mxGeometry relative="1" as="geometry">
            <mxPoint x="405" y="150" as="targetPoint" />
          </mxGeometry>
        </mxCell>
        <mxCell id="LdABEuLXezl1GXQZqgnf-3" value="start" style="text;html=1;strokeColor=none;fillColor=none;align=center;verticalAlign=middle;whiteSpace=wrap;rounded=0;" vertex="1" parent="1">
          <mxGeometry x="375" y="30" width="60" height="30" as="geometry" />
        </mxCell>
        <mxCell id="LdABEuLXezl1GXQZqgnf-7" value="enter the username and password" style="html=1;whiteSpace=wrap;" vertex="1" parent="1">
          <mxGeometry x="350" y="230" width="110" height="50" as="geometry" />
        </mxCell>
        <mxCell id="LdABEuLXezl1GXQZqgnf-8" value="login to the user account" style="html=1;whiteSpace=wrap;" vertex="1" parent="1">
          <mxGeometry x="350" y="330" width="110" height="50" as="geometry" />
        </mxCell>
        <mxCell id="LdABEuLXezl1GXQZqgnf-9" value="" style="endArrow=open;endFill=1;endSize=12;html=1;rounded=0;exitX=0.5;exitY=1;exitDx=0;exitDy=0;entryX=0.5;entryY=0;entryDx=0;entryDy=0;" edge="1" parent="1" source="LdABEuLXezl1GXQZqgnf-7" target="LdABEuLXezl1GXQZqgnf-8">
          <mxGeometry width="160" relative="1" as="geometry">
            <mxPoint x="330" y="240" as="sourcePoint" />
            <mxPoint x="490" y="240" as="targetPoint" />
          </mxGeometry>
        </mxCell>
        <mxCell id="LdABEuLXezl1GXQZqgnf-10" value="" style="endArrow=open;endFill=1;endSize=12;html=1;rounded=0;exitX=0;exitY=0.5;exitDx=0;exitDy=0;entryX=0.5;entryY=0;entryDx=0;entryDy=0;" edge="1" parent="1" source="LdABEuLXezl1GXQZqgnf-8">
          <mxGeometry width="160" relative="1" as="geometry">
            <mxPoint x="330" y="300" as="sourcePoint" />
            <mxPoint x="295" y="440" as="targetPoint" />
            <Array as="points">
              <mxPoint x="295" y="355" />
            </Array>
          </mxGeometry>
        </mxCell>
        <mxCell id="cJpgm5VrqygdeiYwTNFy-21" value="" style="edgeStyle=orthogonalEdgeStyle;rounded=0;orthogonalLoop=1;jettySize=auto;html=1;" edge="1" parent="1" source="LdABEuLXezl1GXQZqgnf-12" target="cJpgm5VrqygdeiYwTNFy-20">
          <mxGeometry relative="1" as="geometry" />
        </mxCell>
        <mxCell id="LdABEuLXezl1GXQZqgnf-12" value="Proceed ro booking" style="html=1;whiteSpace=wrap;" vertex="1" parent="1">
          <mxGeometry x="460" y="440" width="110" height="50" as="geometry" />
        </mxCell>
        <mxCell id="LdABEuLXezl1GXQZqgnf-13" value="" style="endArrow=open;endFill=1;endSize=12;html=1;rounded=0;exitX=1;exitY=0.5;exitDx=0;exitDy=0;entryX=0.5;entryY=0;entryDx=0;entryDy=0;" edge="1" parent="1" source="LdABEuLXezl1GXQZqgnf-8" target="LdABEuLXezl1GXQZqgnf-12">
          <mxGeometry width="160" relative="1" as="geometry">
            <mxPoint x="330" y="390" as="sourcePoint" />
            <mxPoint x="490" y="390" as="targetPoint" />
            <Array as="points">
              <mxPoint x="515" y="355" />
            </Array>
          </mxGeometry>
        </mxCell>
        <mxCell id="LdABEuLXezl1GXQZqgnf-14" value="" style="endArrow=open;endFill=1;endSize=12;html=1;rounded=0;exitX=0.5;exitY=1;exitDx=0;exitDy=0;" edge="1" parent="1">
          <mxGeometry width="160" relative="1" as="geometry">
            <mxPoint x="295" y="490" as="sourcePoint" />
            <mxPoint x="295" y="550" as="targetPoint" />
          </mxGeometry>
        </mxCell>
        <mxCell id="LdABEuLXezl1GXQZqgnf-15" value="select route" style="html=1;whiteSpace=wrap;" vertex="1" parent="1">
          <mxGeometry x="240" y="550" width="110" height="50" as="geometry" />
        </mxCell>
        <mxCell id="cJpgm5VrqygdeiYwTNFy-33" value="" style="edgeStyle=orthogonalEdgeStyle;rounded=0;orthogonalLoop=1;jettySize=auto;html=1;" edge="1" parent="1" source="LdABEuLXezl1GXQZqgnf-19" target="cJpgm5VrqygdeiYwTNFy-32">
          <mxGeometry relative="1" as="geometry" />
        </mxCell>
        <mxCell id="LdABEuLXezl1GXQZqgnf-19" value="payment for tickets" style="html=1;whiteSpace=wrap;" vertex="1" parent="1">
          <mxGeometry x="555" y="950" width="110" height="50" as="geometry" />
        </mxCell>
        <mxCell id="cJpgm5VrqygdeiYwTNFy-52" value="" style="edgeStyle=orthogonalEdgeStyle;rounded=0;orthogonalLoop=1;jettySize=auto;html=1;entryX=0.5;entryY=0;entryDx=0;entryDy=0;" edge="1" parent="1">
          <mxGeometry relative="1" as="geometry">
            <mxPoint x="205" y="740" as="sourcePoint" />
            <mxPoint x="14.999999999999773" y="900" as="targetPoint" />
            <Array as="points">
              <mxPoint x="205" y="830" />
              <mxPoint x="15" y="830" />
            </Array>
          </mxGeometry>
        </mxCell>
        <mxCell id="LdABEuLXezl1GXQZqgnf-21" value="chance the time" style="html=1;whiteSpace=wrap;" vertex="1" parent="1">
          <mxGeometry x="150" y="690" width="110" height="50" as="geometry" />
        </mxCell>
        <mxCell id="LdABEuLXezl1GXQZqgnf-24" value="" style="endArrow=open;endFill=1;endSize=12;html=1;rounded=0;exitX=0.5;exitY=1;exitDx=0;exitDy=0;entryX=0.5;entryY=0;entryDx=0;entryDy=0;" edge="1" parent="1" source="LdABEuLXezl1GXQZqgnf-15">
          <mxGeometry width="160" relative="1" as="geometry">
            <mxPoint x="305" y="710" as="sourcePoint" />
            <mxPoint x="295" y="790" as="targetPoint" />
          </mxGeometry>
        </mxCell>
        <mxCell id="LdABEuLXezl1GXQZqgnf-27" value="" style="endArrow=open;endFill=1;endSize=12;html=1;rounded=0;exitX=0.5;exitY=1;exitDx=0;exitDy=0;entryX=0.5;entryY=0;entryDx=0;entryDy=0;" edge="1" parent="1" source="LdABEuLXezl1GXQZqgnf-19" target="cJpgm5VrqygdeiYwTNFy-31">
          <mxGeometry width="160" relative="1" as="geometry">
            <mxPoint x="330" y="930" as="sourcePoint" />
            <mxPoint x="520" y="1080" as="targetPoint" />
            <Array as="points">
              <mxPoint x="610" y="1020" />
              <mxPoint x="715" y="1020" />
            </Array>
          </mxGeometry>
        </mxCell>
        <mxCell id="LdABEuLXezl1GXQZqgnf-46" value="download QR" style="html=1;whiteSpace=wrap;" vertex="1" parent="1">
          <mxGeometry x="840" y="440" width="110" height="50" as="geometry" />
        </mxCell>
        <mxCell id="LdABEuLXezl1GXQZqgnf-48" value="" style="ellipse;html=1;shape=endState;fillColor=#000000;strokeColor=#ff0000;" vertex="1" parent="1">
          <mxGeometry x="280" y="990" width="30" height="30" as="geometry" />
        </mxCell>
        <mxCell id="cJpgm5VrqygdeiYwTNFy-1" value="See Shedule" style="html=1;whiteSpace=wrap;" vertex="1" parent="1">
          <mxGeometry x="240" y="440" width="110" height="50" as="geometry" />
        </mxCell>
        <mxCell id="cJpgm5VrqygdeiYwTNFy-6" value="" style="edgeStyle=orthogonalEdgeStyle;rounded=0;orthogonalLoop=1;jettySize=auto;html=1;" edge="1" parent="1" source="cJpgm5VrqygdeiYwTNFy-4" target="cJpgm5VrqygdeiYwTNFy-5">
          <mxGeometry relative="1" as="geometry" />
        </mxCell>
        <mxCell id="cJpgm5VrqygdeiYwTNFy-4" value="see recent bookings" style="html=1;whiteSpace=wrap;" vertex="1" parent="1">
          <mxGeometry x="20" y="440" width="110" height="50" as="geometry" />
        </mxCell>
        <mxCell id="cJpgm5VrqygdeiYwTNFy-10" value="" style="edgeStyle=orthogonalEdgeStyle;rounded=0;orthogonalLoop=1;jettySize=auto;html=1;" edge="1" parent="1" source="cJpgm5VrqygdeiYwTNFy-5" target="cJpgm5VrqygdeiYwTNFy-9">
          <mxGeometry relative="1" as="geometry" />
        </mxCell>
        <mxCell id="cJpgm5VrqygdeiYwTNFy-11" value="" style="edgeStyle=orthogonalEdgeStyle;rounded=0;orthogonalLoop=1;jettySize=auto;html=1;" edge="1" parent="1" source="cJpgm5VrqygdeiYwTNFy-5" target="LdABEuLXezl1GXQZqgnf-21">
          <mxGeometry relative="1" as="geometry" />
        </mxCell>
        <mxCell id="cJpgm5VrqygdeiYwTNFy-5" value="Cancel a booking" style="whiteSpace=wrap;html=1;" vertex="1" parent="1">
          <mxGeometry x="15" y="585" width="120" height="60" as="geometry" />
        </mxCell>
        <mxCell id="cJpgm5VrqygdeiYwTNFy-44" value="" style="edgeStyle=orthogonalEdgeStyle;rounded=0;orthogonalLoop=1;jettySize=auto;html=1;entryX=0.5;entryY=0;entryDx=0;entryDy=0;" edge="1" parent="1" source="cJpgm5VrqygdeiYwTNFy-9" target="cJpgm5VrqygdeiYwTNFy-50">
          <mxGeometry relative="1" as="geometry">
            <mxPoint x="-60" y="830" as="targetPoint" />
          </mxGeometry>
        </mxCell>
        <mxCell id="cJpgm5VrqygdeiYwTNFy-9" value="proceed to a refund" style="whiteSpace=wrap;html=1;" vertex="1" parent="1">
          <mxGeometry x="-120" y="690" width="120" height="60" as="geometry" />
        </mxCell>
        <mxCell id="cJpgm5VrqygdeiYwTNFy-12" value="Shedule" style="shape=parallelogram;perimeter=parallelogramPerimeter;whiteSpace=wrap;html=1;fixedSize=1;" vertex="1" parent="1">
          <mxGeometry x="230" y="790" width="120" height="60" as="geometry" />
        </mxCell>
        <mxCell id="cJpgm5VrqygdeiYwTNFy-15" value="" style="endArrow=open;endFill=1;endSize=12;html=1;rounded=0;exitX=0.538;exitY=1.011;exitDx=0;exitDy=0;exitPerimeter=0;" edge="1" parent="1" source="cJpgm5VrqygdeiYwTNFy-12">
          <mxGeometry width="160" relative="1" as="geometry">
            <mxPoint x="305" y="610" as="sourcePoint" />
            <mxPoint x="295" y="990" as="targetPoint" />
          </mxGeometry>
        </mxCell>
        <mxCell id="cJpgm5VrqygdeiYwTNFy-17" value="" style="endArrow=open;endFill=1;endSize=12;html=1;rounded=0;exitX=1;exitY=0.5;exitDx=0;exitDy=0;entryX=0;entryY=0.5;entryDx=0;entryDy=0;" edge="1" parent="1" source="cJpgm5VrqygdeiYwTNFy-12" target="LdABEuLXezl1GXQZqgnf-12">
          <mxGeometry width="160" relative="1" as="geometry">
            <mxPoint x="305" y="861" as="sourcePoint" />
            <mxPoint x="305" y="1000" as="targetPoint" />
            <Array as="points">
              <mxPoint x="410" y="820" />
              <mxPoint x="410" y="465" />
            </Array>
          </mxGeometry>
        </mxCell>
        <mxCell id="cJpgm5VrqygdeiYwTNFy-18" value="" style="endArrow=open;endFill=1;endSize=12;html=1;rounded=0;exitX=0;exitY=0.25;exitDx=0;exitDy=0;entryX=0.5;entryY=0;entryDx=0;entryDy=0;" edge="1" parent="1" source="LdABEuLXezl1GXQZqgnf-8" target="cJpgm5VrqygdeiYwTNFy-4">
          <mxGeometry width="160" relative="1" as="geometry">
            <mxPoint x="360" y="365" as="sourcePoint" />
            <mxPoint x="305" y="450" as="targetPoint" />
            <Array as="points">
              <mxPoint x="75" y="343" />
            </Array>
          </mxGeometry>
        </mxCell>
        <mxCell id="cJpgm5VrqygdeiYwTNFy-26" value="" style="edgeStyle=orthogonalEdgeStyle;rounded=0;orthogonalLoop=1;jettySize=auto;html=1;" edge="1" parent="1" source="cJpgm5VrqygdeiYwTNFy-20" target="cJpgm5VrqygdeiYwTNFy-25">
          <mxGeometry relative="1" as="geometry" />
        </mxCell>
        <mxCell id="cJpgm5VrqygdeiYwTNFy-20" value="Saved trip" style="whiteSpace=wrap;html=1;" vertex="1" parent="1">
          <mxGeometry x="457.5" y="580" width="115" height="45" as="geometry" />
        </mxCell>
        <mxCell id="cJpgm5VrqygdeiYwTNFy-23" value="" style="edgeStyle=orthogonalEdgeStyle;rounded=0;orthogonalLoop=1;jettySize=auto;html=1;exitX=0.75;exitY=1;exitDx=0;exitDy=0;entryX=0.5;entryY=0;entryDx=0;entryDy=0;" edge="1" parent="1" source="LdABEuLXezl1GXQZqgnf-12" target="cJpgm5VrqygdeiYwTNFy-24">
          <mxGeometry relative="1" as="geometry">
            <mxPoint x="525" y="500" as="sourcePoint" />
            <mxPoint x="690" y="560" as="targetPoint" />
          </mxGeometry>
        </mxCell>
        <mxCell id="cJpgm5VrqygdeiYwTNFy-27" value="" style="edgeStyle=orthogonalEdgeStyle;rounded=0;orthogonalLoop=1;jettySize=auto;html=1;" edge="1" parent="1" source="cJpgm5VrqygdeiYwTNFy-24" target="cJpgm5VrqygdeiYwTNFy-25">
          <mxGeometry relative="1" as="geometry" />
        </mxCell>
        <mxCell id="cJpgm5VrqygdeiYwTNFy-24" value="Select route/time" style="whiteSpace=wrap;html=1;" vertex="1" parent="1">
          <mxGeometry x="630" y="580" width="115" height="45" as="geometry" />
        </mxCell>
        <mxCell id="cJpgm5VrqygdeiYwTNFy-29" value="" style="edgeStyle=orthogonalEdgeStyle;rounded=0;orthogonalLoop=1;jettySize=auto;html=1;" edge="1" parent="1" source="cJpgm5VrqygdeiYwTNFy-25" target="cJpgm5VrqygdeiYwTNFy-28">
          <mxGeometry relative="1" as="geometry" />
        </mxCell>
        <mxCell id="cJpgm5VrqygdeiYwTNFy-25" value="System propts if there any optizations to do&amp;nbsp;" style="whiteSpace=wrap;html=1;" vertex="1" parent="1">
          <mxGeometry x="550" y="700" width="120" height="60" as="geometry" />
        </mxCell>
        <mxCell id="cJpgm5VrqygdeiYwTNFy-30" value="" style="edgeStyle=orthogonalEdgeStyle;rounded=0;orthogonalLoop=1;jettySize=auto;html=1;" edge="1" parent="1" source="cJpgm5VrqygdeiYwTNFy-28" target="LdABEuLXezl1GXQZqgnf-19">
          <mxGeometry relative="1" as="geometry" />
        </mxCell>
        <mxCell id="cJpgm5VrqygdeiYwTNFy-28" value="Select a seat" style="whiteSpace=wrap;html=1;" vertex="1" parent="1">
          <mxGeometry x="550" y="840" width="120" height="40" as="geometry" />
        </mxCell>
        <mxCell id="cJpgm5VrqygdeiYwTNFy-31" value="" style="ellipse;html=1;shape=endState;fillColor=#000000;strokeColor=#ff0000;" vertex="1" parent="1">
          <mxGeometry x="700" y="1080" width="30" height="30" as="geometry" />
        </mxCell>
        <mxCell id="cJpgm5VrqygdeiYwTNFy-32" value="Save payment details" style="whiteSpace=wrap;html=1;" vertex="1" parent="1">
          <mxGeometry x="745" y="952.5" width="120" height="45" as="geometry" />
        </mxCell>
        <mxCell id="cJpgm5VrqygdeiYwTNFy-41" value="" style="endArrow=open;endFill=1;endSize=12;html=1;rounded=0;exitX=0.5;exitY=1;exitDx=0;exitDy=0;entryX=0.5;entryY=0;entryDx=0;entryDy=0;" edge="1" parent="1" source="cJpgm5VrqygdeiYwTNFy-32" target="cJpgm5VrqygdeiYwTNFy-31">
          <mxGeometry width="160" relative="1" as="geometry">
            <mxPoint x="305" y="861" as="sourcePoint" />
            <mxPoint x="710" y="1080" as="targetPoint" />
            <Array as="points">
              <mxPoint x="805" y="1020" />
              <mxPoint x="715" y="1020" />
            </Array>
          </mxGeometry>
        </mxCell>
        <mxCell id="cJpgm5VrqygdeiYwTNFy-42" value="" style="endArrow=open;endFill=1;endSize=12;html=1;rounded=0;entryX=0.5;entryY=0;entryDx=0;entryDy=0;exitX=1;exitY=0.25;exitDx=0;exitDy=0;" edge="1" parent="1" source="LdABEuLXezl1GXQZqgnf-8" target="LdABEuLXezl1GXQZqgnf-46">
          <mxGeometry width="160" relative="1" as="geometry">
            <mxPoint x="610" y="200" as="sourcePoint" />
            <mxPoint x="525" y="450" as="targetPoint" />
            <Array as="points">
              <mxPoint x="895" y="343" />
            </Array>
          </mxGeometry>
        </mxCell>
        <mxCell id="cJpgm5VrqygdeiYwTNFy-50" value="" style="ellipse;html=1;shape=endState;fillColor=#000000;strokeColor=#ff0000;" vertex="1" parent="1">
          <mxGeometry y="900" width="30" height="30" as="geometry" />
        </mxCell>
        <mxCell id="cJpgm5VrqygdeiYwTNFy-53" value="" style="ellipse;html=1;shape=endState;fillColor=#000000;strokeColor=#ff0000;" vertex="1" parent="1">
          <mxGeometry x="880" y="580" width="30" height="30" as="geometry" />
        </mxCell>
        <mxCell id="cJpgm5VrqygdeiYwTNFy-54" value="" style="endArrow=open;endFill=1;endSize=12;html=1;rounded=0;entryX=0.5;entryY=0;entryDx=0;entryDy=0;" edge="1" parent="1" source="LdABEuLXezl1GXQZqgnf-46" target="cJpgm5VrqygdeiYwTNFy-53">
          <mxGeometry width="160" relative="1" as="geometry">
            <mxPoint x="305" y="861" as="sourcePoint" />
            <mxPoint x="305" y="1000" as="targetPoint" />
          </mxGeometry>
        </mxCell>
      </root>
    </mxGraphModel>
  </diagram>
  <diagram id="mT7CvXRqvmQMhyJ60sv_" name="Page-2">
    <mxGraphModel grid="1" page="1" gridSize="10" guides="1" tooltips="1" connect="1" arrows="1" fold="1" pageScale="1" pageWidth="850" pageHeight="1100" math="0" shadow="0">
      <root>
        <mxCell id="0" />
        <mxCell id="1" parent="0" />
        <mxCell id="kojbuk3V9phN7dGEQvNU-7" value="" style="edgeStyle=orthogonalEdgeStyle;rounded=0;orthogonalLoop=1;jettySize=auto;html=1;" edge="1" parent="1" source="kojbuk3V9phN7dGEQvNU-1" target="kojbuk3V9phN7dGEQvNU-6">
          <mxGeometry relative="1" as="geometry" />
        </mxCell>
        <mxCell id="kojbuk3V9phN7dGEQvNU-1" value="" style="ellipse;html=1;shape=startState;fillColor=#000000;strokeColor=#ff0000;" vertex="1" parent="1">
          <mxGeometry x="410" y="70" width="30" height="30" as="geometry" />
        </mxCell>
        <mxCell id="kojbuk3V9phN7dGEQvNU-9" value="" style="edgeStyle=orthogonalEdgeStyle;rounded=0;orthogonalLoop=1;jettySize=auto;html=1;" edge="1" parent="1" source="kojbuk3V9phN7dGEQvNU-6" target="kojbuk3V9phN7dGEQvNU-8">
          <mxGeometry relative="1" as="geometry" />
        </mxCell>
        <mxCell id="kojbuk3V9phN7dGEQvNU-11" value="" style="edgeStyle=orthogonalEdgeStyle;rounded=0;orthogonalLoop=1;jettySize=auto;html=1;" edge="1" parent="1" source="kojbuk3V9phN7dGEQvNU-6" target="kojbuk3V9phN7dGEQvNU-10">
          <mxGeometry relative="1" as="geometry" />
        </mxCell>
        <mxCell id="XjvEq54mbE8uk-iHeFk--21" style="edgeStyle=orthogonalEdgeStyle;rounded=0;orthogonalLoop=1;jettySize=auto;html=1;exitX=1;exitY=0;exitDx=0;exitDy=0;" edge="1" parent="1">
          <mxGeometry relative="1" as="geometry">
            <mxPoint x="500" y="193" as="sourcePoint" />
            <mxPoint x="850" y="453" as="targetPoint" />
          </mxGeometry>
        </mxCell>
        <mxCell id="kojbuk3V9phN7dGEQvNU-6" value="&lt;font style=&quot;font-size: 14px;&quot;&gt;Login&lt;/font&gt;" style="rounded=1;whiteSpace=wrap;html=1;absoluteArcSize=1;arcSize=14;strokeWidth=2;" vertex="1" parent="1">
          <mxGeometry x="350" y="180" width="150" height="50" as="geometry" />
        </mxCell>
        <mxCell id="kojbuk3V9phN7dGEQvNU-15" value="" style="edgeStyle=orthogonalEdgeStyle;rounded=0;orthogonalLoop=1;jettySize=auto;html=1;" edge="1" parent="1" source="kojbuk3V9phN7dGEQvNU-8" target="kojbuk3V9phN7dGEQvNU-14">
          <mxGeometry relative="1" as="geometry" />
        </mxCell>
        <mxCell id="kojbuk3V9phN7dGEQvNU-8" value="Edit time shedule" style="whiteSpace=wrap;html=1;rounded=1;arcSize=14;strokeWidth=2;" vertex="1" parent="1">
          <mxGeometry x="30" y="310" width="120" height="60" as="geometry" />
        </mxCell>
        <mxCell id="XjvEq54mbE8uk-iHeFk--4" value="" style="edgeStyle=orthogonalEdgeStyle;rounded=0;orthogonalLoop=1;jettySize=auto;html=1;" edge="1" parent="1" source="kojbuk3V9phN7dGEQvNU-10" target="XjvEq54mbE8uk-iHeFk--3">
          <mxGeometry relative="1" as="geometry" />
        </mxCell>
        <mxCell id="XjvEq54mbE8uk-iHeFk--5" value="" style="edgeStyle=orthogonalEdgeStyle;rounded=0;orthogonalLoop=1;jettySize=auto;html=1;" edge="1" parent="1" source="kojbuk3V9phN7dGEQvNU-10" target="XjvEq54mbE8uk-iHeFk--6">
          <mxGeometry relative="1" as="geometry" />
        </mxCell>
        <mxCell id="kojbuk3V9phN7dGEQvNU-10" value="Verifications" style="whiteSpace=wrap;html=1;rounded=1;arcSize=14;strokeWidth=2;" vertex="1" parent="1">
          <mxGeometry x="365" y="305" width="120" height="60" as="geometry" />
        </mxCell>
        <mxCell id="XjvEq54mbE8uk-iHeFk--2" value="" style="edgeStyle=orthogonalEdgeStyle;rounded=0;orthogonalLoop=1;jettySize=auto;html=1;" edge="1" parent="1" source="kojbuk3V9phN7dGEQvNU-14" target="XjvEq54mbE8uk-iHeFk--1">
          <mxGeometry relative="1" as="geometry" />
        </mxCell>
        <mxCell id="kojbuk3V9phN7dGEQvNU-14" value="Notify a change" style="whiteSpace=wrap;html=1;rounded=1;arcSize=14;strokeWidth=2;" vertex="1" parent="1">
          <mxGeometry x="30" y="450" width="120" height="60" as="geometry" />
        </mxCell>
        <mxCell id="XjvEq54mbE8uk-iHeFk--1" value="" style="ellipse;html=1;shape=endState;fillColor=#000000;strokeColor=#ff0000;" vertex="1" parent="1">
          <mxGeometry x="75" y="620" width="30" height="30" as="geometry" />
        </mxCell>
        <mxCell id="XjvEq54mbE8uk-iHeFk--8" value="" style="edgeStyle=orthogonalEdgeStyle;rounded=0;orthogonalLoop=1;jettySize=auto;html=1;" edge="1" parent="1" source="XjvEq54mbE8uk-iHeFk--3" target="XjvEq54mbE8uk-iHeFk--7">
          <mxGeometry relative="1" as="geometry" />
        </mxCell>
        <mxCell id="XjvEq54mbE8uk-iHeFk--3" value="Applied bus vrifications" style="whiteSpace=wrap;html=1;rounded=1;arcSize=14;strokeWidth=2;" vertex="1" parent="1">
          <mxGeometry x="270" y="470" width="120" height="60" as="geometry" />
        </mxCell>
        <mxCell id="XjvEq54mbE8uk-iHeFk--10" value="" style="edgeStyle=orthogonalEdgeStyle;rounded=0;orthogonalLoop=1;jettySize=auto;html=1;" edge="1" parent="1" source="XjvEq54mbE8uk-iHeFk--6" target="XjvEq54mbE8uk-iHeFk--9">
          <mxGeometry relative="1" as="geometry" />
        </mxCell>
        <mxCell id="XjvEq54mbE8uk-iHeFk--6" value="Applied Conductor vrifications" style="whiteSpace=wrap;html=1;rounded=1;arcSize=14;strokeWidth=2;" vertex="1" parent="1">
          <mxGeometry x="470" y="470" width="120" height="60" as="geometry" />
        </mxCell>
        <mxCell id="XjvEq54mbE8uk-iHeFk--12" value="" style="edgeStyle=orthogonalEdgeStyle;rounded=0;orthogonalLoop=1;jettySize=auto;html=1;" edge="1" parent="1" source="XjvEq54mbE8uk-iHeFk--7" target="XjvEq54mbE8uk-iHeFk--11">
          <mxGeometry relative="1" as="geometry" />
        </mxCell>
        <mxCell id="XjvEq54mbE8uk-iHeFk--7" value="Select bus" style="rounded=1;whiteSpace=wrap;html=1;arcSize=14;strokeWidth=2;" vertex="1" parent="1">
          <mxGeometry x="270" y="610" width="120" height="60" as="geometry" />
        </mxCell>
        <mxCell id="XjvEq54mbE8uk-iHeFk--14" value="" style="edgeStyle=orthogonalEdgeStyle;rounded=0;orthogonalLoop=1;jettySize=auto;html=1;" edge="1" parent="1" source="XjvEq54mbE8uk-iHeFk--9" target="XjvEq54mbE8uk-iHeFk--13">
          <mxGeometry relative="1" as="geometry" />
        </mxCell>
        <mxCell id="XjvEq54mbE8uk-iHeFk--9" value="Select a application" style="rounded=1;whiteSpace=wrap;html=1;arcSize=14;strokeWidth=2;" vertex="1" parent="1">
          <mxGeometry x="470" y="610" width="120" height="60" as="geometry" />
        </mxCell>
        <mxCell id="XjvEq54mbE8uk-iHeFk--16" style="edgeStyle=orthogonalEdgeStyle;rounded=0;orthogonalLoop=1;jettySize=auto;html=1;entryX=0.5;entryY=0;entryDx=0;entryDy=0;" edge="1" parent="1" source="XjvEq54mbE8uk-iHeFk--11" target="XjvEq54mbE8uk-iHeFk--15">
          <mxGeometry relative="1" as="geometry" />
        </mxCell>
        <mxCell id="XjvEq54mbE8uk-iHeFk--11" value="verify bus" style="whiteSpace=wrap;html=1;rounded=1;arcSize=14;strokeWidth=2;" vertex="1" parent="1">
          <mxGeometry x="270" y="750" width="120" height="60" as="geometry" />
        </mxCell>
        <mxCell id="XjvEq54mbE8uk-iHeFk--17" style="edgeStyle=orthogonalEdgeStyle;rounded=0;orthogonalLoop=1;jettySize=auto;html=1;exitX=0;exitY=0.5;exitDx=0;exitDy=0;" edge="1" parent="1" source="XjvEq54mbE8uk-iHeFk--13">
          <mxGeometry relative="1" as="geometry">
            <mxPoint x="425" y="910" as="targetPoint" />
            <mxPoint x="465" y="779.9655172413793" as="sourcePoint" />
          </mxGeometry>
        </mxCell>
        <mxCell id="XjvEq54mbE8uk-iHeFk--13" value="Verify conductor" style="whiteSpace=wrap;html=1;rounded=1;arcSize=14;strokeWidth=2;" vertex="1" parent="1">
          <mxGeometry x="470" y="750" width="120" height="60" as="geometry" />
        </mxCell>
        <mxCell id="XjvEq54mbE8uk-iHeFk--15" value="" style="ellipse;html=1;shape=endState;fillColor=#000000;strokeColor=#ff0000;" vertex="1" parent="1">
          <mxGeometry x="410" y="910" width="30" height="30" as="geometry" />
        </mxCell>
        <mxCell id="XjvEq54mbE8uk-iHeFk--25" value="" style="edgeStyle=orthogonalEdgeStyle;rounded=0;orthogonalLoop=1;jettySize=auto;html=1;" edge="1" parent="1" source="XjvEq54mbE8uk-iHeFk--20" target="XjvEq54mbE8uk-iHeFk--24">
          <mxGeometry relative="1" as="geometry" />
        </mxCell>
        <mxCell id="XjvEq54mbE8uk-iHeFk--20" value="Access bookings" style="whiteSpace=wrap;html=1;rounded=1;arcSize=14;strokeWidth=2;" vertex="1" parent="1">
          <mxGeometry x="790" y="440" width="120" height="60" as="geometry" />
        </mxCell>
        <mxCell id="XjvEq54mbE8uk-iHeFk--24" value="" style="ellipse;html=1;shape=endState;fillColor=#000000;strokeColor=#ff0000;" vertex="1" parent="1">
          <mxGeometry x="835" y="590" width="30" height="30" as="geometry" />
        </mxCell>
      </root>
    </mxGraphModel>
  </diagram>
  <diagram id="Ufzb1hRVQfZXze4wfhnN" name="Page-3">
    <mxGraphModel grid="1" page="1" gridSize="10" guides="1" tooltips="1" connect="1" arrows="1" fold="1" pageScale="1" pageWidth="850" pageHeight="1100" math="0" shadow="0">
      <root>
        <mxCell id="0" />
        <mxCell id="1" parent="0" />
        <mxCell id="iAcxdH3I82zW2riW7mTm-3" value="" style="edgeStyle=orthogonalEdgeStyle;rounded=0;orthogonalLoop=1;jettySize=auto;html=1;" edge="1" parent="1" source="iAcxdH3I82zW2riW7mTm-1" target="iAcxdH3I82zW2riW7mTm-2">
          <mxGeometry relative="1" as="geometry" />
        </mxCell>
        <mxCell id="iAcxdH3I82zW2riW7mTm-1" value="" style="ellipse;html=1;shape=endState;fillColor=#000000;strokeColor=#ff0000;" vertex="1" parent="1">
          <mxGeometry x="410" y="40" width="30" height="30" as="geometry" />
        </mxCell>
        <mxCell id="wk1KqiYnyOQj73DT3WrO-2" value="" style="edgeStyle=orthogonalEdgeStyle;rounded=0;orthogonalLoop=1;jettySize=auto;html=1;" edge="1" parent="1" source="iAcxdH3I82zW2riW7mTm-2" target="wk1KqiYnyOQj73DT3WrO-1">
          <mxGeometry relative="1" as="geometry" />
        </mxCell>
        <mxCell id="wk1KqiYnyOQj73DT3WrO-4" value="" style="edgeStyle=orthogonalEdgeStyle;rounded=0;orthogonalLoop=1;jettySize=auto;html=1;" edge="1" parent="1" source="iAcxdH3I82zW2riW7mTm-2" target="wk1KqiYnyOQj73DT3WrO-3">
          <mxGeometry relative="1" as="geometry" />
        </mxCell>
        <mxCell id="wk1KqiYnyOQj73DT3WrO-6" value="" style="edgeStyle=orthogonalEdgeStyle;rounded=0;orthogonalLoop=1;jettySize=auto;html=1;" edge="1" parent="1" source="iAcxdH3I82zW2riW7mTm-2" target="wk1KqiYnyOQj73DT3WrO-5">
          <mxGeometry relative="1" as="geometry" />
        </mxCell>
        <mxCell id="iAcxdH3I82zW2riW7mTm-2" value="Log in" style="rounded=1;whiteSpace=wrap;html=1;absoluteArcSize=1;arcSize=14;strokeWidth=2;" vertex="1" parent="1">
          <mxGeometry x="359" y="200" width="132" height="40" as="geometry" />
        </mxCell>
        <mxCell id="6FXkkcrpt_nNYfFWDhTe-7" value="" style="edgeStyle=orthogonalEdgeStyle;rounded=0;orthogonalLoop=1;jettySize=auto;html=1;" edge="1" parent="1" source="wk1KqiYnyOQj73DT3WrO-1" target="6FXkkcrpt_nNYfFWDhTe-2">
          <mxGeometry relative="1" as="geometry" />
        </mxCell>
        <mxCell id="wk1KqiYnyOQj73DT3WrO-1" value="Submit bus application" style="whiteSpace=wrap;html=1;rounded=1;arcSize=14;strokeWidth=2;" vertex="1" parent="1">
          <mxGeometry x="365.5" y="355" width="120" height="60" as="geometry" />
        </mxCell>
        <mxCell id="wk1KqiYnyOQj73DT3WrO-10" value="" style="edgeStyle=orthogonalEdgeStyle;rounded=0;orthogonalLoop=1;jettySize=auto;html=1;" edge="1" parent="1" source="wk1KqiYnyOQj73DT3WrO-3" target="wk1KqiYnyOQj73DT3WrO-9">
          <mxGeometry relative="1" as="geometry" />
        </mxCell>
        <mxCell id="wk1KqiYnyOQj73DT3WrO-3" value="My Busses" style="whiteSpace=wrap;html=1;rounded=1;arcSize=14;strokeWidth=2;" vertex="1" parent="1">
          <mxGeometry x="600" y="355" width="120" height="60" as="geometry" />
        </mxCell>
        <mxCell id="wk1KqiYnyOQj73DT3WrO-8" value="" style="edgeStyle=orthogonalEdgeStyle;rounded=0;orthogonalLoop=1;jettySize=auto;html=1;" edge="1" parent="1" source="wk1KqiYnyOQj73DT3WrO-5" target="wk1KqiYnyOQj73DT3WrO-7">
          <mxGeometry relative="1" as="geometry" />
        </mxCell>
        <mxCell id="wk1KqiYnyOQj73DT3WrO-5" value="Reports" style="whiteSpace=wrap;html=1;rounded=1;arcSize=14;strokeWidth=2;" vertex="1" parent="1">
          <mxGeometry x="140" y="355" width="120" height="60" as="geometry" />
        </mxCell>
        <mxCell id="6FXkkcrpt_nNYfFWDhTe-6" value="" style="edgeStyle=orthogonalEdgeStyle;rounded=0;orthogonalLoop=1;jettySize=auto;html=1;" edge="1" parent="1" source="wk1KqiYnyOQj73DT3WrO-7" target="6FXkkcrpt_nNYfFWDhTe-1">
          <mxGeometry relative="1" as="geometry" />
        </mxCell>
        <mxCell id="wk1KqiYnyOQj73DT3WrO-7" value="select bus" style="whiteSpace=wrap;html=1;rounded=1;arcSize=14;strokeWidth=2;" vertex="1" parent="1">
          <mxGeometry x="140" y="495" width="120" height="60" as="geometry" />
        </mxCell>
        <mxCell id="6FXkkcrpt_nNYfFWDhTe-8" value="" style="edgeStyle=orthogonalEdgeStyle;rounded=0;orthogonalLoop=1;jettySize=auto;html=1;" edge="1" parent="1" source="wk1KqiYnyOQj73DT3WrO-9" target="6FXkkcrpt_nNYfFWDhTe-3">
          <mxGeometry relative="1" as="geometry" />
        </mxCell>
        <mxCell id="wk1KqiYnyOQj73DT3WrO-9" value="Edit/add conductors to busses" style="whiteSpace=wrap;html=1;rounded=1;arcSize=14;strokeWidth=2;" vertex="1" parent="1">
          <mxGeometry x="600" y="495" width="120" height="60" as="geometry" />
        </mxCell>
        <mxCell id="6FXkkcrpt_nNYfFWDhTe-1" value="" style="ellipse;html=1;shape=endState;fillColor=#000000;strokeColor=#ff0000;" vertex="1" parent="1">
          <mxGeometry x="185" y="610" width="30" height="30" as="geometry" />
        </mxCell>
        <mxCell id="6FXkkcrpt_nNYfFWDhTe-2" value="" style="ellipse;html=1;shape=endState;fillColor=#000000;strokeColor=#ff0000;" vertex="1" parent="1">
          <mxGeometry x="410" y="500" width="30" height="30" as="geometry" />
        </mxCell>
        <mxCell id="6FXkkcrpt_nNYfFWDhTe-3" value="" style="ellipse;html=1;shape=endState;fillColor=#000000;strokeColor=#ff0000;" vertex="1" parent="1">
          <mxGeometry x="645" y="630" width="30" height="30" as="geometry" />
        </mxCell>
      </root>
    </mxGraphModel>
  </diagram>
</mxfile>
